 <svg  version="1.0" xmlns="http://www.w3.org/2000/svg"  width="300.000000pt" height="294.000000pt" viewBox="0 0 300.000000 294.000000"  preserveAspectRatio="xMidYMid meet">  <g transform="translate(0.000000,294.000000) scale(0.100000,-0.100000)" fill="#ffffff" stroke="none"> <path d="M1534 2848 c-16 -12 -48 -40 -72 -62 -41 -39 -43 -40 -75 -27 -73 29 -106 34 -153 21 -86 -24 -127 -77 -158 -202 -17 -70 -35 -204 -32 -248 1 -23 -2 -25 -36 -22 -20 2 -50 -4 -68 -13 -88 -45 -90 -250 -4 -424 96 -195 319 -337 458 -291 56 18 43 28 -33 22 -62 -4 -76 -1 -133 25 -75 35 -186 134 -234 209 -58 90 -75 148 -81 264 -4 93 -2 109 16 137 23 37 55 49 91 35 21 -8 28 -22 44 -96 13 -58 17 -101 12 -136 -8 -62 9 -169 39 -236 40 -91 118 -160 201 -178 48 -11 119 11 133 40 14 32 14 34 -2 28 -20 -7 -67 44 -94 104 -14 28 -28 52 -33 52 -19 0 -147 139 -174 189 -28 52 -28 57 -18 115 9 46 9 62 0 68 -18 10 -28 -11 -28 -62 0 -33 -3 -41 -10 -30 -13 20 -13 117 0 125 8 5 7 11 -1 21 -17 21 -5 203 20 299 23 89 41 119 92 153 32 23 40 24 129 17 52 -4 100 -11 106 -16 7 -5 21 2 40 22 86 92 144 109 210 60 36 -26 113 -136 102 -146 -2 -2 -22 0 -44 6 -45 13 -162 6 -195 -11 -18 -10 -25 -8 -53 19 -29 28 -66 41 -66 24 0 -13 68 -63 84 -63 8 0 17 -4 20 -8 3 -5 37 -2 76 6 59 12 80 12 131 0 61 -13 62 -14 75 -57 27 -93 37 -214 25 -303 -28 -197 -77 -293 -228 -447 -90 -91 -113 -120 -113 -142 0 -20 -4 -27 -14 -23 -9 4 -15 -8 -19 -40 -13 -94 -37 -417 -41 -561 -3 -82 -8 -151 -13 -152 -15 -5 -117 29 -189 62 -66 30 -173 97 -205 127 -8 7 -35 30 -62 51 -31 25 -47 46 -47 61 0 55 -33 130 -77 177 -25 27 -41 49 -36 49 12 0 86 -78 102 -108 6 -12 18 -50 26 -84 l15 -63 -5 52 c-7 66 -26 112 -67 160 -29 33 -30 36 -8 22 39 -25 79 -99 94 -175 11 -52 14 -60 15 -33 1 32 -12 85 -34 144 -7 18 -6 18 8 5 17 -16 41 -100 52 -183 4 -27 9 -47 11 -44 3 3 0 40 -5 84 -14 96 -50 172 -100 213 -54 42 -64 38 -13 -6 23 -19 42 -40 42 -46 0 -6 -20 8 -45 31 -43 39 -63 52 -50 31 3 -5 2 -10 -4 -10 -13 0 -23 17 -12 22 5 1 -6 21 -25 42 -19 22 -34 34 -34 28 0 -6 12 -24 26 -41 14 -17 21 -31 16 -31 -10 0 -46 40 -69 76 -6 11 -12 13 -12 7 -1 -7 15 -31 35 -53 20 -22 32 -40 27 -40 -14 0 -59 50 -77 85 -13 24 -16 26 -16 10 0 -11 14 -37 31 -58 17 -20 26 -37 21 -37 -15 0 -50 44 -67 84 -9 21 -19 36 -21 33 -11 -11 9 -50 43 -88 33 -37 32 -45 -6 -40 -7 2 -10 -3 -6 -9 4 -6 14 -9 22 -6 8 3 12 2 9 -3 -3 -4 3 -16 14 -26 14 -12 20 -14 20 -5 0 10 3 10 15 0 32 -27 56 -82 75 -175 11 -53 30 -118 42 -144 12 -25 24 -50 27 -56 2 -5 -3 -4 -11 3 -25 20 -57 104 -74 194 -15 79 -43 150 -64 163 -5 3 -10 1 -10 -6 0 -7 -17 3 -37 23 -21 20 -47 40 -59 46 -32 17 -27 -17 7 -45 44 -37 67 -83 90 -178 11 -49 29 -106 40 -127 21 -41 24 -52 10 -44 -17 11 -51 95 -67 168 -19 85 -42 133 -78 167 -25 24 -38 17 -14 -7 9 -9 9 -12 0 -12 -7 0 -4 -13 9 -34 11 -19 31 -75 44 -125 14 -51 32 -106 40 -124 l16 -32 -20 25 c-11 14 -27 49 -35 77 -9 29 -23 78 -32 108 -29 97 -32 59 -4 -45 39 -142 107 -235 216 -290 68 -35 68 -35 61 -14 -5 15 -3 14 9 -4 17 -23 51 -32 38 -9 -4 6 2 3 14 -7 24 -21 28 -16 11 17 -22 42 -50 65 -74 61 -25 -4 -38 15 -25 35 5 9 10 10 14 2 4 -6 5 -15 2 -19 -3 -5 1 -9 9 -9 8 0 15 5 15 11 0 20 69 -58 75 -86 4 -15 11 -28 16 -28 10 0 8 28 -3 46 -4 6 -1 11 7 11 8 0 11 -5 8 -10 -4 -6 -1 -7 8 -2 12 7 12 6 1 -7 -10 -12 -10 -18 2 -27 9 -8 16 -8 20 -2 4 5 2 12 -4 16 -6 4 -8 11 -4 16 3 5 10 7 15 4 5 -4 9 -1 9 5 0 6 5 8 13 3 18 -11 37 -12 37 -2 0 6 5 7 10 4 20 -12 9 -22 -22 -21 -23 1 -33 -4 -33 -14 0 -8 7 -13 15 -11 8 2 22 5 30 6 8 2 17 4 20 5 3 1 8 2 13 1 4 0 7 3 7 8 0 6 9 8 20 6 19 -4 19 -3 4 21 -18 27 -29 32 -21 9 4 -8 1 -17 -5 -21 -6 -4 -8 -3 -5 3 3 5 -3 22 -14 39 -10 16 -19 24 -19 17 0 -6 5 -15 10 -18 6 -3 10 -12 10 -18 -1 -7 -12 2 -26 18 -18 22 -23 25 -19 10 6 -20 6 -20 -9 0 -44 58 -46 61 -40 43 10 -29 -4 -20 -21 13 -9 17 -19 28 -22 25 -3 -3 2 -17 11 -30 18 -29 21 -40 6 -31 -6 3 -19 27 -31 52 -11 25 -23 42 -26 39 -3 -3 6 -26 21 -52 29 -52 31 -58 15 -48 -6 4 -27 39 -45 78 -19 39 -31 58 -28 41 4 -16 15 -45 26 -64 10 -18 16 -36 14 -39 -5 -4 -16 19 -74 148 -11 24 -11 24 -6 -5 10 -46 42 -117 66 -142 12 -13 19 -25 16 -29 -17 -16 -90 118 -104 190 l-7 40 25 -20 c14 -10 61 -48 106 -84 97 -79 196 -133 317 -175 l90 -31 2 -105 c3 -118 30 -578 39 -654 l6 -51 34 4 c26 3 34 8 30 21 -2 9 -8 40 -11 68 -7 50 -4 58 49 158 66 125 134 228 206 310 59 67 64 72 175 171 150 132 235 194 269 195 17 1 23 3 14 6 -20 5 -24 19 -6 25 6 2 41 -1 77 -8 132 -25 204 -7 346 85 79 52 81 52 147 49 42 -2 67 1 65 7 -2 6 -31 11 -65 13 -60 3 -130 -20 -147 -48 -11 -18 -129 -77 -175 -88 -52 -13 -91 -11 -254 14 -102 15 -128 16 -194 5 -43 -7 -99 -22 -127 -33 -27 -11 -65 -21 -84 -23 -28 -3 -32 -1 -20 10 8 7 25 16 39 20 24 7 25 7 5 -9 -14 -12 -7 -11 23 4 63 31 186 60 252 60 31 0 99 -7 151 -16 112 -19 229 -15 279 10 64 33 192 120 181 124 -6 2 -23 -6 -37 -17 -38 -30 -52 -26 -23 6 l24 27 -25 -17 c-14 -9 -52 -31 -85 -49 -71 -37 -172 -48 -280 -29 -137 24 -255 13 -380 -34 -15 -6 -17 -5 -9 4 17 19 125 53 198 62 50 6 97 5 170 -6 167 -25 234 -17 332 40 65 38 50 40 -26 2 -58 -29 -72 -32 -155 -31 -49 0 -144 4 -210 9 -135 9 -189 -1 -297 -56 -43 -22 -63 -27 -76 -20 -20 11 -82 -16 -63 -29 15 -9 46 -6 86 9 l30 11 -25 -19 c-15 -12 -40 -20 -60 -19 -54 1 -57 -1 -63 -22 -9 -33 -9 -34 -26 -47 -28 -20 79 -8 132 16 26 11 74 28 106 36 66 17 241 21 241 5 0 -5 -3 -10 -7 -11 -5 0 -60 -1 -123 -3 -105 -2 -123 -5 -200 -36 -47 -19 -104 -35 -127 -35 -39 0 -73 -13 -42 -16 8 -1 25 -3 39 -4 14 -2 63 13 110 32 75 31 98 36 195 40 81 4 107 2 99 -6 -6 -6 -54 -12 -115 -14 -95 -3 -112 -6 -191 -41 -48 -21 -92 -35 -97 -31 -6 3 -23 -1 -38 -9 -19 -10 -22 -15 -11 -16 9 0 20 5 23 10 3 6 12 10 18 10 7 0 -6 -12 -28 -25 -58 -36 -39 -31 57 15 45 22 110 46 143 54 70 17 195 27 195 15 0 -12 -30 -18 -100 -18 -37 0 -91 -9 -125 -20 -74 -24 -219 -91 -212 -98 3 -2 14 0 25 6 12 6 24 11 29 11 4 -1 -5 -8 -20 -16 -48 -26 -23 -26 29 0 55 27 109 43 204 61 l65 13 -50 1 c-32 0 -81 -10 -135 -29 -95 -33 -106 -36 -70 -15 47 27 176 63 250 71 l75 7 -52 -40 c-211 -159 -373 -344 -479 -547 -16 -31 -33 -56 -37 -56 -5 0 -6 3 -4 8 3 4 -2 77 -11 162 -18 173 -21 766 -6 1040 l9 155 76 6 c173 14 251 72 343 256 94 189 140 431 105 557 -12 45 -88 124 -146 153 -31 15 -45 33 -78 98 -53 104 -103 145 -179 145 -39 0 -61 -6 -82 -22z m388 -300 c50 -47 57 -60 68 -112 39 -193 -107 -598 -250 -692 -38 -25 -216 -71 -228 -59 -3 3 5 13 19 22 49 32 198 190 237 252 100 153 137 374 97 566 -18 82 -17 75 -7 75 5 0 33 -24 64 -52z m-792 -521 c0 -46 92 -150 142 -162 18 -5 29 -21 47 -70 15 -42 34 -74 56 -94 38 -33 31 -41 -31 -41 -104 0 -214 132 -229 274 -15 146 -15 150 0 130 8 -10 15 -27 15 -37z m-323 -622 c42 -35 76 -101 89 -170 6 -36 6 -39 -9 -26 -16 12 -25 2 -11 -12 3 -3 7 -26 8 -50 1 -28 14 -68 35 -108 18 -35 26 -57 18 -51 -29 24 -66 117 -81 202 -17 101 -27 130 -62 176 -19 24 -32 33 -45 29 -9 -3 -21 0 -25 6 -5 9 -2 10 11 5 15 -5 16 -4 6 8 -9 11 -9 15 1 19 22 9 23 8 65 -28z m-77 -63 c17 -27 37 -79 50 -135 12 -51 31 -112 43 -137 11 -25 23 -49 26 -55 2 -5 -4 -3 -15 5 -15 11 -16 11 -6 0 17 -20 15 -35 -3 -20 -8 7 -15 9 -15 5 0 -5 -9 0 -20 10 -11 10 -20 14 -20 8 0 -5 9 -18 20 -28 14 -13 20 -14 20 -5 0 8 12 2 29 -14 16 -15 32 -23 35 -18 3 5 -1 15 -9 22 -8 7 -15 17 -15 23 0 5 10 2 22 -9 l22 -19 -21 30 c-40 58 -61 111 -78 195 -9 47 -24 98 -32 113 -8 16 -12 31 -9 34 10 10 43 -75 60 -157 10 -47 32 -111 48 -143 32 -60 47 -127 23 -107 -6 5 -15 7 -18 3 -4 -3 -16 2 -27 12 -11 10 -20 14 -20 10 0 -5 -16 6 -35 25 -20 19 -33 40 -30 48 3 7 -2 26 -10 42 -8 16 -26 71 -40 121 -13 50 -31 102 -40 116 -23 35 -11 40 13 6 11 -15 31 -72 46 -125 25 -95 56 -171 75 -182 19 -12 19 25 1 67 -11 24 -27 77 -35 118 -19 92 -45 144 -93 187 l-37 34 33 -19 c18 -10 46 -37 62 -61z m1920 -187 c0 -8 -73 -51 -119 -69 -55 -21 -139 -22 -285 -1 -131 18 -191 13 -306 -25 -47 -16 -76 -23 -66 -15 30 23 166 64 231 71 38 4 102 0 172 -11 148 -23 221 -17 298 22 63 32 75 36 75 28z m-1605 -198 c4 5 5 2 1 -5 -4 -7 -4 -12 1 -11 4 1 10 0 13 -1 25 -9 38 -6 32 8 -4 10 -7 12 -10 4 -4 -14 -22 -6 -22 9 0 6 5 7 10 4 6 -3 10 -1 10 6 0 6 9 0 21 -15 11 -14 24 -24 29 -21 5 3 12 0 16 -6 4 -8 3 -9 -4 -5 -7 4 -12 2 -12 -4 0 -6 -5 -8 -12 -3 -20 12 -38 12 -38 1 0 -7 -4 -7 -12 -1 -7 6 -21 9 -30 8 -20 -3 -31 10 -33 37 -2 16 0 17 15 3 9 -8 20 -12 25 -8z"/> <path d="M786 1393 c23 -23 50 -63 60 -90 24 -66 38 -79 20 -19 -16 53 -57 110 -96 134 -15 9 -8 -1 16 -25z"/> <path d="M1322 2684 c-61 -54 -120 -161 -172 -314 l-32 -96 31 -46 c17 -26 43 -55 56 -65 18 -14 27 -33 34 -78 16 -106 41 -173 75 -210 28 -30 40 -35 77 -35 48 0 63 7 72 30 3 8 5 -1 4 -20 0 -19 0 -57 1 -85 2 -49 2 -49 18 -26 12 17 15 36 11 72 -6 48 -6 49 37 78 60 42 114 105 145 170 45 96 32 245 -36 401 -33 75 -82 150 -99 150 -8 0 -14 -2 -14 -4 0 -2 22 -45 49 -97 125 -240 126 -399 4 -535 -30 -33 -102 -89 -106 -83 -1 2 -13 27 -27 54 -14 28 -60 87 -104 132 l-79 83 5 63 c8 95 52 178 158 296 49 55 85 103 80 106 -16 10 -43 -11 -108 -83 -108 -122 -147 -196 -167 -314 -3 -21 -9 -38 -13 -38 -4 1 -22 14 -41 30 l-33 28 32 99 c65 196 126 294 216 350 16 10 17 13 4 22 -21 15 -20 16 -78 -35z m-52 -551 c8 -15 37 -55 65 -88 67 -78 105 -135 105 -157 0 -15 -9 -18 -54 -18 l-55 0 -24 83 c-14 45 -28 98 -32 117 -4 19 -18 52 -31 73 -21 32 -22 37 -7 28 10 -5 25 -22 33 -38z"/> <path d="M621 1549 c-1 -14 10 -43 24 -63 23 -35 22 -49 -3 -24 -8 8 -12 8 -12 1 0 -13 27 -26 57 -28 22 -1 21 0 -7 28 -16 15 -35 47 -44 70 -12 35 -15 38 -15 16z"/> <path d="M840 1504 c0 -6 29 -36 65 -68 36 -32 71 -70 79 -84 15 -29 31 -102 41 -190 4 -29 9 -51 11 -49 3 2 0 46 -6 96 -11 100 -33 155 -84 211 -17 19 -23 28 -13 21 37 -28 25 -3 -13 28 -22 17 -40 27 -40 22 0 -6 9 -15 21 -21 11 -7 18 -14 15 -18 -4 -3 -22 10 -41 28 -19 19 -35 29 -35 24z"/> <path d="M955 1455 c17 -14 24 -25 17 -25 -8 0 -4 -12 12 -33 39 -51 53 -93 65 -197 14 -113 26 -136 16 -30 -10 109 -23 160 -50 202 -30 45 -32 57 -6 34 33 -30 59 -107 70 -207 6 -53 15 -107 21 -120 10 -23 10 -23 5 3 -3 14 -9 70 -15 122 -5 53 -17 112 -25 132 -22 53 -56 96 -71 90 -8 -3 -11 0 -8 9 8 20 45 -8 77 -60 30 -48 34 -67 47 -188 5 -52 14 -105 20 -118 10 -23 10 -23 5 4 -3 15 -10 75 -16 133 -5 59 -16 121 -23 139 -21 50 -85 117 -106 110 -9 -3 -23 1 -30 10 -7 8 -18 15 -24 15 -6 -1 3 -12 19 -25z"/> <path d="M1082 1404 c41 -86 47 -109 57 -209 5 -60 17 -128 25 -150 17 -46 21 -36 6 15 -6 19 -15 83 -20 142 -9 106 -33 186 -60 203 -7 4 -11 4 -8 -1z"/> <path d="M1155 1315 c3 -22 10 -83 15 -135 9 -92 27 -176 36 -168 2 2 -1 20 -7 39 -5 19 -14 84 -19 144 -5 61 -13 121 -19 135 -10 22 -10 20 -6 -15z"/> <path d="M1196 1225 c6 -105 22 -194 41 -225 9 -17 12 -18 8 -5 -24 74 -35 139 -36 200 0 38 -4 79 -9 90 -5 12 -7 -11 -4 -60z"/> <path d="M2115 1275 c-60 -17 -179 -76 -220 -109 -29 -24 -29 -24 -5 -21 14 2 65 20 114 40 105 44 188 53 345 37 105 -11 204 -2 226 20 7 7 -1 7 -25 2 -19 -5 -62 -8 -95 -7 -351 10 -344 10 -424 -24 -41 -18 -77 -31 -79 -28 -8 7 104 54 166 70 60 16 140 18 262 7 124 -12 151 2 32 16 -130 15 -233 14 -297 -3z"/> <path d="M1232 1185 c-2 -70 9 -136 30 -188 17 -44 19 -26 2 28 -9 28 -19 91 -23 140 l-8 90 -1 -70z"/> <path d="M2570 1217 c-40 -20 -57 -22 -155 -18 -60 3 -162 4 -225 4 -111 0 -118 -1 -193 -36 -53 -25 -87 -35 -109 -32 -33 4 -62 -10 -53 -26 3 -4 13 -5 22 -2 11 4 14 3 9 -6 -5 -7 18 1 51 17 147 74 245 88 434 62 46 -6 104 -9 129 -5 53 7 150 43 150 56 0 12 -9 10 -60 -14z"/> <path d="M1264 1124 c2 -39 8 -79 15 -90 10 -16 11 -14 5 16 -4 19 -11 60 -15 90 -8 54 -8 54 -5 -16z"/> <path d="M2717 1116 c-20 -8 -52 -25 -71 -39 -18 -14 -62 -41 -97 -59 -59 -30 -71 -33 -156 -33 -103 0 -122 -9 -40 -19 76 -9 157 10 229 55 108 67 164 89 221 89 37 0 48 3 37 10 -21 14 -78 12 -123 -4z"/> <path d="M2695 1067 c-16 -7 -58 -31 -93 -54 -92 -61 -148 -77 -246 -70 -45 3 -91 9 -103 13 -13 3 -23 2 -23 -3 0 -15 147 -36 199 -28 55 8 134 40 176 70 52 38 98 58 160 71 l60 12 -50 0 c-27 0 -63 -5 -80 -11z"/> <path d="M2665 1010 c-33 -17 -82 -44 -110 -60 -93 -55 -177 -64 -314 -35 -41 8 -76 13 -79 10 -7 -6 11 -12 100 -30 138 -27 216 -15 318 50 77 49 137 75 171 75 16 0 29 5 29 10 0 19 -56 10 -115 -20z"/> <path d="M2672 980 c-13 -6 -42 -23 -65 -38 -67 -46 -124 -72 -182 -83 -54 -10 -95 -5 -273 30 -80 16 -28 -6 64 -28 170 -39 253 -26 385 59 35 22 75 43 89 46 14 3 34 9 45 14 17 7 16 9 -10 9 -16 0 -40 -4 -53 -9z"/> <path d="M2645 925 c-27 -14 -71 -38 -96 -54 -99 -62 -194 -72 -339 -36 -67 17 -172 30 -125 15 92 -28 218 -52 275 -52 82 0 145 22 229 78 36 24 81 46 99 50 17 4 32 10 32 15 0 15 -23 10 -75 -16z"/> <path d="M1237 904 c11 -17 19 -22 21 -14 3 9 11 5 23 -11 13 -16 19 -19 19 -9 0 12 2 13 9 1 5 -7 14 -10 20 -7 16 10 13 29 -4 23 -8 -4 -17 -2 -20 4 -4 5 -10 7 -15 4 -5 -3 -11 -1 -15 5 -4 6 -11 8 -16 5 -5 -4 -12 1 -15 9 -3 9 -10 16 -15 16 -5 0 -2 -12 8 -26z"/> <path d="M2614 869 c-160 -86 -170 -89 -234 -95 -49 -5 -93 0 -180 19 -160 35 -182 38 -175 27 3 -6 15 -10 26 -10 11 0 66 -12 122 -27 119 -31 228 -34 296 -9 24 9 72 34 105 55 34 21 71 41 84 45 12 4 22 12 22 17 0 13 0 13 -66 -22z"/> <path d="M1868 854 c-67 -14 -205 -70 -196 -79 3 -3 34 8 69 23 35 16 97 34 136 41 40 7 75 17 79 22 7 12 -6 11 -88 -7z"/> <path d="M2564 805 c-67 -44 -160 -75 -226 -75 -29 0 -100 11 -158 25 -57 14 -132 28 -165 30 -59 4 -59 4 25 -14 47 -10 126 -29 175 -41 142 -35 228 -22 342 52 28 18 60 38 70 45 14 9 14 12 3 12 -8 0 -38 -16 -66 -34z"/> <path d="M1747 788 c-89 -36 -97 -50 -10 -18 33 12 84 27 114 35 54 13 54 13 14 13 -22 1 -74 -13 -118 -30z"/> <path d="M2540 754 c-114 -72 -209 -81 -393 -34 -118 29 -201 40 -213 27 -4 -4 10 -7 30 -7 21 0 101 -16 179 -36 176 -45 246 -44 347 5 64 31 135 80 115 80 -5 0 -35 -15 -65 -35z"/> <path d="M1740 759 c-55 -20 -100 -49 -50 -33 14 4 59 18 100 30 60 18 68 23 40 23 -19 0 -60 -9 -90 -20z"/> <path d="M1725 724 c-22 -8 -46 -17 -54 -19 -8 -3 -12 -7 -10 -10 5 -4 139 32 147 40 11 10 -44 3 -83 -11z"/> <path d="M1930 709 c95 -21 217 -50 270 -64 64 -18 169 -19 224 -4 42 12 121 57 113 65 -2 3 -20 -4 -40 -16 -19 -11 -65 -27 -101 -34 -77 -17 -140 -10 -283 28 -51 14 -123 28 -160 30 -62 5 -64 4 -23 -5z"/> <path d="M1681 684 c-18 -8 -32 -17 -30 -19 5 -4 110 22 117 30 11 11 -55 3 -87 -11z"/> <path d="M1925 665 c50 -6 142 -27 205 -45 134 -39 236 -45 285 -17 l30 17 -40 -7 c-76 -15 -168 -5 -308 31 -93 24 -158 36 -200 35 l-62 -1 90 -13z"/> <path d="M1658 647 c-16 -6 -28 -14 -28 -18 0 -9 82 11 95 22 13 12 -34 9 -67 -4z"/> <path d="M1824 640 c-10 -4 20 -10 66 -13 51 -4 132 -20 202 -41 133 -39 228 -55 228 -37 0 6 -14 11 -31 11 -16 0 -99 17 -182 39 -153 39 -248 53 -283 41z"/> <path d="M1615 600 l-40 -20 35 6 c41 8 80 21 80 29 0 11 -37 4 -75 -15z"/> <path d="M1790 603 c0 -5 28 -11 63 -12 75 -3 123 -13 246 -52 52 -16 104 -29 115 -27 21 4 -65 34 -199 69 -84 23 -225 36 -225 22z"/> <path d="M1590 564 c-25 -15 -25 -15 10 -8 48 9 73 23 40 23 -14 0 -36 -6 -50 -15z"/> <path d="M1840 556 c52 -7 137 -25 188 -40 127 -38 141 -26 17 13 -77 25 -123 33 -200 36 l-100 4 95 -13z"/> <path d="M1860 515 c36 -7 90 -20 120 -29 49 -15 72 -15 57 0 -13 13 -154 44 -196 43 -46 -1 -45 -1 19 -14z"/> </g> </svg> 